<svg xmlns="http://www.w3.org/2000/svg" viewBox="0 0 32 32">
  <rect width="32" height="32" rx="2" fill="#0A0A0A"/>
  <circle cx="16" cy="16" r="13" fill="none" stroke="#C4A574" stroke-width="0.8"/>
  <path d="M8 11h3.2c3.4 0 5.6 2 5.6 5.4S14.6 21.8 11.2 21.8H8V11zm2.2 1.8v7.2h1c2.1 0 3.4-1.2 3.4-3.6s-1.3-3.6-3.4-3.6h-1z" fill="#C4A574"/>
  <path d="M24.2 16.4c0-3.1-2.1-5.3-5-5.3-2.1 0-3.7 1-4.5 2.7l1.7 1c.5-1 1.4-1.7 2.8-1.7 1.8 0 3 1.3 3 3.3s-1.2 3.3-3 3.3c-1.4 0-2.3-.7-2.8-1.7l-1.7 1c.8 1.7 2.4 2.7 4.5 2.7 2.9 0 5-2.2 5-5.3z" fill="#C4A574"/>
</svg>
